<svg version="1.0" xmlns="http://www.w3.org/2000/svg"  width="100" height="20" viewBox="0 0 300.000000 186.000000"  preserveAspectRatio="xMidYMid meet">  <g transform="translate(0.000000,186.000000) scale(0.100000,-0.100000)" fill="#ffffff" stroke="none"> <path d="M396 1754 c-3 -9 -6 -28 -6 -42 0 -25 17 -35 243 -144 133 -65 232 -110 220 -100 -18 14 -221 150 -418 279 -28 19 -34 20 -39 7z m90 -76 c4 -6 3 -9 -2 -6 -42 19 -64 32 -64 39 0 10 57 -19 66 -33z"/> <path d="M297 1617 c3 -40 0 -119 -6 -176 -7 -57 -10 -105 -8 -107 2 -3 13 30 23 73 21 92 61 143 112 143 32 0 209 -49 356 -100 49 -16 91 -28 93 -26 2 2 -25 16 -59 31 -35 16 -137 64 -228 107 -155 75 -274 128 -284 128 -2 0 -2 -33 1 -73z m95 7 c142 -68 154 -78 75 -57 -49 13 -54 12 -99 -11 l-48 -25 0 59 c0 33 4 60 9 60 5 0 33 -12 63 -26z"/> <path d="M375 1498 c-20 -18 -36 -59 -75 -198 -28 -96 -50 -179 -50 -183 0 -5 16 -7 37 -5 36 3 36 4 55 73 59 217 73 245 125 245 33 0 376 -96 415 -116 39 -20 45 -56 21 -136 l-20 -68 38 0 c27 0 39 5 43 18 48 159 50 196 12 231 -24 23 -492 161 -545 161 -17 0 -41 -10 -56 -22z m150 -28 c22 -6 49 -13 60 -15 11 -3 31 -9 45 -14 14 -5 39 -13 55 -17 17 -4 35 -8 40 -10 6 -2 30 -8 55 -14 25 -6 54 -14 65 -19 11 -4 43 -17 70 -28 l50 -19 -1 -60 c0 -33 -6 -69 -12 -79 -8 -16 -10 -9 -6 32 5 48 3 54 -28 88 -28 30 -49 41 -118 60 -47 13 -133 37 -193 54 -137 40 -166 40 -204 1 -22 -23 -37 -58 -63 -147 -33 -119 -49 -161 -50 -135 0 16 66 255 82 295 19 49 52 55 153 27z"/> <path d="M2660 1270 c-6 -12 -14 -56 -17 -97 -7 -90 4 -94 55 -19 54 81 54 128 -1 134 -18 2 -29 -3 -37 -18z m65 -10 c3 -5 -5 -31 -19 -57 -28 -55 -55 -93 -56 -77 0 16 21 128 27 137 6 10 41 9 48 -3z"/> <path d="M2801 1205 c-17 -20 -40 -54 -51 -75 -18 -36 -19 -41 -5 -46 15 -6 80 30 123 69 27 25 29 63 3 77 -30 15 -36 13 -70 -25z m67 -11 c2 -16 -11 -30 -50 -57 -29 -21 -57 -37 -61 -37 -5 0 11 27 34 60 43 62 71 74 77 34z"/> <path d="M2834 1060 c-59 -34 -79 -54 -69 -70 8 -13 41 -13 105 1 74 16 99 48 64 83 -22 23 -42 20 -100 -14z m91 -15 c0 -22 -55 -43 -115 -44 l-35 0 55 35 c60 38 95 41 95 9z"/> <path d="M227 1038 c-10 -8 -22 -39 -29 -75 -13 -69 -3 -93 36 -93 17 0 18 2 6 10 -11 7 -5 10 25 10 l39 0 -54 -55 c-30 -30 -59 -55 -64 -55 -6 0 8 19 29 41 24 25 32 37 19 31 -69 -36 -116 -151 -78 -193 15 -17 32 -19 176 -19 143 0 160 2 174 19 16 18 17 18 52 -2 45 -27 141 -28 195 -2 36 17 39 17 57 0 15 -14 32 -16 92 -12 40 3 78 5 83 5 237 -10 298 -8 316 8 19 17 27 60 9 49 -12 -7 -13 34 -2 52 5 8 12 2 21 -17 7 -17 31 -41 54 -55 23 -14 37 -25 32 -25 -6 0 -28 12 -49 26 -22 15 -37 21 -34 13 8 -26 83 -59 134 -60 127 -2 260 2 270 9 6 4 15 16 21 26 15 28 53 28 63 0 12 -30 28 -34 150 -35 175 -2 209 0 230 11 14 7 26 8 39 0 32 -16 147 -13 165 6 15 14 17 14 32 0 23 -24 145 -22 167 2 9 10 29 86 48 184 31 163 32 168 14 188 -15 16 -31 20 -86 20 -48 0 -72 -5 -83 -16 -15 -14 -17 -14 -32 0 -18 19 -143 23 -160 6 -8 -8 -19 -8 -38 0 -15 5 -60 10 -100 10 -91 0 -151 -27 -182 -84 l-22 -38 -7 42 c-11 64 -33 80 -110 80 -71 0 -89 -11 -120 -71 l-17 -31 -19 31 c-40 67 -188 95 -273 52 -37 -19 -38 -19 -57 0 -15 15 -33 19 -80 19 -65 0 -99 -12 -99 -35 0 -11 -9 -9 -37 8 -35 20 -53 22 -217 25 -145 2 -183 0 -201 -12 -20 -13 -25 -13 -35 -1 -16 19 -437 22 -463 3z m1326 -5 c-13 -2 -35 -2 -50 0 -16 2 -5 4 22 4 28 0 40 -2 28 -4z m645 0 c-16 -2 -40 -2 -55 0 -16 2 -3 4 27 4 30 0 43 -2 28 -4z m-1950 -14 c-10 -5 -18 -18 -19 -27 0 -11 -2 -12 -6 -4 -6 15 14 42 31 42 6 0 3 -5 -6 -11z m320 4 c-53 -2 -143 -2 -200 0 -57 1 -13 3 97 3 110 0 156 -2 103 -3z m147 -9 c8 3 15 4 15 2 0 -25 -43 -203 -52 -213 -23 -29 -26 5 -7 97 16 76 18 99 8 115 -11 18 -11 19 4 6 9 -7 24 -11 32 -7z m108 9 c-13 -2 -33 -2 -45 0 -13 2 -3 4 22 4 25 0 35 -2 23 -4z m77 3 c0 -9 -30 -14 -35 -6 -4 6 3 10 14 10 12 0 21 -2 21 -4z m234 -16 c31 -18 40 -19 54 -8 14 11 15 10 9 -5 -4 -10 -7 -28 -7 -40 -1 -21 -1 -21 -17 4 -26 43 -53 53 -153 60 l-95 6 85 1 c69 2 93 -2 124 -18z m169 13 c-13 -2 -35 -2 -50 0 -16 2 -5 4 22 4 28 0 40 -2 28 -4z m58 -9 c7 -8 21 -13 31 -11 12 4 8 -4 -13 -24 -38 -35 -41 -36 -29 -4 7 18 5 28 -6 40 -9 8 -11 15 -6 15 5 0 15 -7 23 -16z m106 10 c-3 -3 -12 -4 -19 -1 -8 3 -5 6 6 6 11 1 17 -2 13 -5z m421 -1 c-15 -2 -42 -2 -60 0 -18 2 -6 4 27 4 33 0 48 -2 33 -4z m219 1 c-3 -3 -12 -4 -19 -1 -8 3 -5 6 6 6 11 1 17 -2 13 -5z m150 0 c-3 -3 -12 -4 -19 -1 -8 3 -5 6 6 6 11 1 17 -2 13 -5z m57 -9 c-7 -17 -30 -20 -39 -6 -3 5 5 12 17 14 13 2 24 5 25 6 1 0 0 -6 -3 -14z m89 8 c-13 -2 -35 -2 -50 0 -16 2 -5 4 22 4 28 0 40 -2 28 -4z m97 -5 c11 6 43 11 72 10 l53 -1 -60 -6 -60 -6 -10 -47 c-11 -53 -18 -63 -39 -55 -12 5 -12 13 -4 46 8 32 7 45 -3 58 -13 15 -12 15 9 2 18 -11 26 -11 42 -1z m155 2 c3 -6 -1 -7 -9 -4 -18 7 -21 14 -7 14 6 0 13 -4 16 -10z m-996 -31 c17 -17 31 -35 31 -40 0 -22 30 -6 50 26 12 19 24 35 26 35 6 0 9 6 -75 -128 -51 -81 -67 -100 -78 -91 -18 15 -17 27 3 25 9 0 26 11 37 27 16 21 18 30 9 39 -9 9 -15 9 -24 0 -9 -9 -9 -12 0 -12 16 0 15 -11 -3 -34 -7 -10 -19 -15 -25 -11 -8 5 -6 13 6 26 9 10 12 19 7 19 -16 0 -36 -28 -28 -40 4 -7 -1 -9 -17 -5 -16 4 -29 1 -37 -9 -12 -14 -71 -24 -71 -12 0 2 -3 13 -6 23 -6 16 -5 16 9 -2 22 -28 72 -11 72 25 0 32 -42 41 -62 14 -7 -10 -13 -13 -13 -8 0 32 58 46 80 19 20 -24 44 -18 91 24 41 36 43 40 31 63 -7 13 -25 32 -40 41 -15 9 -22 17 -15 17 6 0 25 -14 42 -31z m388 13 c-15 -10 -34 -27 -42 -38 -8 -10 -15 -15 -15 -11 0 13 60 67 74 67 6 0 -1 -8 -17 -18z m-429 -29 c35 -26 34 -34 -7 -68 -29 -25 -34 -26 -42 -13 -21 37 -107 25 -123 -17 -11 -30 -6 -82 10 -95 21 -18 70 -17 92 3 17 16 20 15 48 -14 l29 -31 -27 -23 c-15 -13 -45 -26 -67 -30 -133 -22 -223 65 -191 183 13 50 67 107 113 121 50 16 134 7 165 -16z m623 16 c19 -7 35 -13 37 -14 2 -1 -5 -19 -15 -39 -12 -26 -22 -35 -32 -31 -50 19 -121 17 -121 -4 0 -5 25 -17 55 -26 31 -9 65 -25 75 -35 46 -46 5 -130 -73 -151 -47 -12 -128 -7 -168 11 l-26 12 20 38 21 37 34 -14 c37 -15 107 -14 107 2 0 6 -25 18 -55 27 -91 29 -116 86 -64 147 39 47 131 65 205 40z m-1721 -31 c-7 -22 -38 -60 -96 -113 l-86 -80 77 3 c84 4 79 9 60 -55 -6 -22 -10 -23 -146 -23 l-139 0 6 28 c3 16 40 61 90 110 46 46 84 84 84 85 0 1 -30 0 -66 -1 -59 -3 -66 -2 -60 13 3 9 6 28 6 41 l0 24 139 0 140 0 -9 -32z m136 10 c-3 -13 -11 -56 -18 -96 -13 -77 -7 -104 25 -110 32 -6 52 32 71 131 l18 97 53 0 52 0 -24 -107 c-32 -147 -68 -192 -161 -201 -62 -5 -117 19 -139 62 -15 28 -14 38 1 126 10 52 19 101 21 108 3 7 23 12 56 12 48 0 51 -1 45 -22z m478 -7 c49 -46 27 -157 -34 -176 -19 -6 -19 -8 6 -51 l26 -44 -55 0 c-44 0 -57 4 -61 18 -4 9 -15 28 -26 42 -17 21 -21 23 -30 10 -5 -8 -10 -27 -10 -42 0 -27 -2 -28 -55 -28 -52 0 -55 1 -50 23 7 31 55 269 55 274 0 3 47 3 104 1 94 -3 107 -5 130 -27z m163 -121 l-30 -150 -51 0 -52 0 31 150 30 150 51 0 51 0 -30 -150z m612 103 c5 -27 21 -94 34 -150 l25 -103 -54 0 c-51 0 -54 1 -54 25 0 24 -3 25 -59 25 -52 0 -61 -3 -75 -25 -14 -22 -24 -25 -73 -25 -52 0 -55 1 -41 18 8 9 52 77 98 150 l84 132 52 0 52 0 11 -47z m46 -13 c5 -8 11 -7 22 2 14 12 15 9 10 -22 -4 -22 -2 -45 7 -61 12 -23 11 -29 -4 -48 -16 -22 -17 -20 -38 76 -22 97 -28 143 -12 91 4 -14 11 -32 15 -38z m472 31 c-3 -16 -9 -40 -13 -55 -6 -25 -5 -26 44 -26 l51 0 6 55 7 55 54 0 c51 0 54 -1 49 -22 -7 -29 -55 -270 -55 -274 0 -2 -23 -4 -51 -4 l-51 0 6 38 c4 20 9 45 12 55 5 14 -2 17 -44 17 l-49 0 -9 -52 -9 -53 -52 -3 c-29 -2 -53 -1 -53 1 0 5 48 244 55 275 5 19 12 22 56 22 51 0 51 0 46 -29z m230 -13 c-3 -7 -5 -2 -5 12 0 14 2 19 5 13 2 -7 2 -19 0 -25z m-2440 0 c-3 -8 -6 -5 -6 6 -1 11 2 17 5 13 3 -3 4 -12 1 -19z m2066 -61 c-4 -29 -9 -35 -19 -27 -10 9 -9 17 4 40 21 36 23 34 15 -13z m364 11 c-3 -7 -5 -2 -5 12 0 14 2 19 5 13 2 -7 2 -19 0 -25z m-2144 -56 c-6 -42 -6 -42 -46 -42 l-41 0 44 45 c24 24 45 43 46 42 2 -1 0 -21 -3 -45z m2134 6 c-3 -7 -5 -2 -5 12 0 14 2 19 5 13 2 -7 2 -19 0 -25z m-1101 11 c9 -14 -19 -42 -39 -37 -11 2 -12 9 -6 26 9 23 33 30 45 11z m1091 -61 c-3 -7 -5 -2 -5 12 0 14 2 19 5 13 2 -7 2 -19 0 -25z m-1476 -38 c-6 -32 -8 -33 -18 -15 -9 16 -8 24 4 38 21 22 23 19 14 -23z m1296 -31 c-8 -41 -7 -53 4 -60 8 -5 9 -9 4 -9 -6 0 -16 5 -22 11 -8 8 -17 7 -34 -2 -21 -10 -22 -10 -12 2 6 8 14 32 18 54 10 51 12 55 34 55 16 0 17 -5 8 -51z m170 19 c-3 -7 -5 -2 -5 12 0 14 2 19 5 13 2 -7 2 -19 0 -25z m-1797 -30 c-7 -22 -6 -36 3 -47 7 -10 4 -9 -10 2 -13 11 -27 16 -34 11 -7 -4 1 9 17 29 16 20 30 37 31 37 1 0 -2 -14 -7 -32z m-653 0 c-3 -8 -6 -5 -6 6 -1 11 2 17 5 13 3 -3 4 -12 1 -19z m357 -3 c3 -8 20 -24 38 -35 18 -11 29 -20 25 -20 -5 0 -22 8 -38 17 -27 16 -29 16 -51 -2 -13 -11 -17 -13 -10 -5 6 8 12 24 12 37 0 26 15 31 24 8z m2083 -17 c-3 -7 -5 -2 -5 12 0 14 2 19 5 13 2 -7 2 -19 0 -25z m-1613 -5 c13 -26 13 -28 -8 -28 -18 0 -21 5 -18 28 2 15 6 27 8 27 2 0 10 -12 18 -27z m844 2 c2 -18 2 -18 -8 -2 -16 25 -56 21 -86 -10 l-27 -28 23 33 c19 29 27 33 58 30 28 -2 38 -8 40 -23z m409 -15 c9 -13 4 -15 -33 -16 l-44 -1 32 16 c18 9 33 17 33 16 1 0 6 -7 12 -15z m-956 -13 c-10 -9 -11 -8 -5 6 3 10 9 15 12 12 3 -3 0 -11 -7 -18z m739 -3 c0 -2 -12 -4 -26 -4 -14 0 -23 4 -20 9 6 8 46 4 46 -5z m-443 0 c-3 -3 -12 -4 -19 -1 -8 3 -5 6 6 6 11 1 17 -2 13 -5z m-944 -11 c-7 -2 -21 -2 -30 0 -10 3 -4 5 12 5 17 0 24 -2 18 -5z m60 0 c-7 -2 -21 -2 -30 0 -10 3 -4 5 12 5 17 0 24 -2 18 -5z m815 0 c-16 -2 -40 -2 -55 0 -16 2 -3 4 27 4 30 0 43 -2 28 -4z m615 0 c-18 -2 -48 -2 -65 0 -18 2 -4 4 32 4 36 0 50 -2 33 -4z"/> <path d="M986 898 c-17 -53 -15 -58 19 -58 62 0 78 62 17 68 -20 2 -34 -2 -36 -10z m44 -18 c0 -5 -4 -10 -10 -10 -5 0 -10 5 -10 10 0 6 5 10 10 10 6 0 10 -4 10 -10z"/> <path d="M1803 850 l-23 -39 30 1 c31 1 35 10 22 55 -7 21 -9 20 -29 -17z"/> <path d="M90 550 c-4 -8 -13 -38 -20 -66 -16 -63 -2 -107 39 -128 42 -22 490 -146 526 -146 41 0 80 36 94 86 6 22 26 91 44 155 l34 116 -34 -1 c-42 -2 -46 -7 -68 -91 -38 -149 -39 -149 -302 -75 -224 64 -243 74 -243 134 0 28 -3 31 -31 31 -17 0 -34 -7 -39 -15z m44 -43 c10 -43 45 -75 99 -92 28 -9 58 -19 66 -21 9 -3 10 -8 3 -17 -5 -6 -11 -19 -13 -28 -4 -15 -11 -15 -82 5 -114 34 -130 54 -106 139 11 42 24 48 33 14z m595 -107 c-19 -67 -42 -130 -52 -141 -23 -24 -53 -24 -136 1 -64 19 -66 20 -66 53 l0 34 64 -20 c109 -32 148 -7 187 121 39 128 41 89 3 -48z m-277 -68 c9 -9 9 -15 0 -24 -8 -8 -25 -7 -68 5 -68 19 -82 30 -65 50 10 13 19 12 66 -2 31 -10 61 -23 67 -29z"/> </g> </svg>